<?xml version="1.0" encoding="utf-8"?>
<svg version="1.1" xmlns="http://www.w3.org/2000/svg" xmlns:xlink="http://www.w3.org/1999/xlink" viewBox="0 0 934 1200" overflow="visible" xml:space="preserve">
<g>
	<polygon fill="#fff3" points="262,1185 262,1138 193,1138 193,1136.4 182,1128.4 182,1115.9 172.4,1094 155,1078.3 155,1047.7 
		143,1041.7 143,1014.5 139,1008.5 139,906 142,902 142,709.8 131.5,686.1 107,663.4 107,631.5 103,625.5 103,531.4 105,525.4 
		105,488.1 96.3,472.4 21.7,424 15,414.3 15,151.6 91.8,205.7 126.4,145.5 174.8,85.5 234.7,34.3 268,15 666,15 699.3,34.3 
		759.2,85.5 807.6,145.5 842.2,205.7 919,151.6 919,414.3 912.3,424 837.7,472.4 829,488.1 829,525.4 831,531.4 831,625.5 
		827,631.5 827,663.4 802.5,686.1 792,709.8 792,902 795,906 795,1008.5 791,1014.5 791,1041.7 779,1047.7 779,1078.3 761.6,1094 
		752,1115.9 752,1128.4 741,1136.4 741,1138 672,1138 672,1185 	"/>
	<path fill="#fff2" d="M661.9,30l28.7,16.6L748.4,96l46.8,58l25.8,45l16.4,28.5l26.9-18.9l39.7-28v229.1l-2.3,3.4l-69,44.7
		l-6.3,4.1l-3.6,6.5l-5,9l-3.8,6.8v7.8v31v4.9l1.5,4.6l0.5,1.4v87l-4,6v9.1v20.9L794.6,673l-4.5,4.2l-2.5,5.6l-8,18l-2.6,5.8v6.4
		v184v10l3,4v92.9l-4,6v9.1v13.5l-12,6v18.5v14.6l-10.1,9.1l-4.8,4.3l-2.6,5.9l-7,16l-2.5,5.7v6.3v1.7l-3.1,2.3H687h-30v30v17H277
		v-17v-30h-30h-46.9l-3.1-2.3v-1.7v-6.3l-2.5-5.7l-7-16l-2.6-5.9l-4.8-4.3l-10.1-9.1V1057v-18.5l-12-6V1019v-9.1l-4-6V911l3-4v-10
		V713v-6.4l-2.6-5.8l-8-18l-2.5-5.6l-4.5-4.2L122,656.9V636v-9.1l-4-6v-87l0.5-1.4l1.5-4.6V523v-31v-7.8l-3.8-6.8l-5-9l-3.6-6.5
		l-6.3-4.1l-69-44.7l-2.3-3.4V180.6l39.7,28l26.9,18.9l16.4-28.5l25.8-45l46.8-58l57.8-49.4L272.1,30H661.9 M670,0H264l-38,22
		l-62,53l-50,62l-27,47l-71-50l-13,1l-3,4v280l11,16l74,48l5,9v31l-2,6v101l4,6v34l27,25l8,18v184l-3,4v112l4,6v32l12,6v28l20,18
		l7,16v17l11,8v9h69v47h440v-47h69v-9l11-8v-17l7-16l20-18v-28l12-6v-32l4-6V901l-3-4V713l8-18l27-25v-34l4-6V529l-2-6v-31l5-9
		l74-48l11-16V139l-3-4l-13-1l-71,50l-27-47l-50-62l-62-53L670,0L670,0z"/>
</g>
</svg>
