<?xml version="1.0" encoding="utf-8"?>
<svg version="1.1" xmlns="http://www.w3.org/2000/svg" xmlns:xlink="http://www.w3.org/1999/xlink" viewBox="0 0 630 524" overflow="visible" xml:space="preserve">
<g>
	<path fill="#fff3" d="M110,509v-28c0-8.3-6.7-15-15-15H57v-1c0-5.3-2.8-10.2-7.3-12.9L37,444.5V408c0-4.4-1.9-8.5-5.2-11.3
		l-2.8-119c-0.1-4.6-2.3-8.9-6-11.6l-2.7-2l-0.3-3.4c-0.2-2-0.8-4-1.8-5.8l-3.1-5.6v-81.8l3.5-7.6l2.1-2.1c2.7-2.7,4.3-6.4,4.4-10.3
		l1.8-86.8C33.3,58.8,38,53,38,46V30l21.2-3.1c6.3-0.9,11.3-5.8,12.5-11.8h486.6c1.2,6.1,6.2,10.9,12.5,11.8L592,30v16
		c0,7,4.7,12.8,11.2,14.5l1.8,86.8c0.1,3.9,1.7,7.6,4.4,10.3l2.1,2.1l3.5,7.6v81.8l-3.1,5.6c-1,1.8-1.6,3.8-1.8,5.8l-0.3,3.4l-2.7,2
		c-3.7,2.8-5.9,7-6,11.6l-2.8,119c-3.3,2.8-5.2,7-5.2,11.3v36.5l-12.7,7.6c-4.5,2.7-7.3,7.6-7.3,12.9v1h-38c-8.3,0-15,6.7-15,15v28
		H110z"/>
	<path fill="#fff2" d="M549,30c4.6,6.1,11.5,10.5,19.6,11.7l8.4,1.2V46c0,9.5,4.4,18,11.4,23.5l1.6,78.1
		c0.2,7.7,3.3,15.1,8.8,20.6l0.2,0.2l1,2.2v74.6l-1.2,2.2c-1.5,2.7-2.6,5.6-3.2,8.6c-5.9,5.5-9.4,13.1-9.6,21.3L583.3,391
		c-3.4,5-5.3,10.9-5.3,17v28l-5.4,3.3c-4.8,2.9-8.6,7-11.1,11.7H535c-16.6,0-30,13.4-30,30v13H125v-13c0-16.6-13.4-30-30-30H68.5
		c-2.5-4.8-6.3-8.9-11.1-11.7L52,436v-28c0-6.2-1.9-12.1-5.3-17L44,277.3c-0.2-8.1-3.7-15.8-9.6-21.3c-0.6-3-1.7-5.9-3.2-8.6
		l-1.2-2.2v-74.6l1-2.2l0.2-0.2c5.5-5.5,8.6-12.8,8.8-20.6l1.6-78.1C48.6,64,53,55.5,53,46v-3.1l8.4-1.2c8.1-1.2,15-5.5,19.6-11.7
		H549 M573,0H57v12l-34,5v29h-8l-3,6l-2,95l-4,4l-6,13v89l5,9l1,10l8,6l3,126l5,4v45l20,12v16h53v43h440v-43h53v-16l20-12v-45l5-4
		l3-126l8-6l1-10l5-9v-89l-6-13l-4-4l-2-95l-3-6h-8V17l-34-5V0L573,0z"/>
</g>
</svg>
