<?xml version="1.0" encoding="utf-8"?>
<svg version="1.1" xmlns="http://www.w3.org/2000/svg" xmlns:xlink="http://www.w3.org/1999/xlink" viewBox="0 0 732 1669" overflow="visible" xml:space="preserve">
<g>
	<polygon fill="#fff3" points="161,1654 161,1607 98,1607 98,1552.4 83,1541.4 83,1513 98,1513 98,1319 75.6,1319 65.1,1304.8 
		53.5,1245.2 42.5,1212.1 37,1185.5 37,939.1 43.6,893.8 26,864.8 26,625.8 15,589.8 15,361.2 22.9,96.1 30.6,85.4 35.9,15 
		696.1,15 701.4,85.4 709.1,96.1 717,361.2 717,589.8 706,625.8 706,864.8 688.4,893.8 695,939.1 695,1185.5 689.5,1212.1 
		678.5,1245.2 666.9,1304.8 656.4,1319 634,1319 634,1513 649,1513 649,1541.4 634,1552.4 634,1607 571,1607 571,1654 	"/>
	<path fill="#fff2" d="M682.2,30l3.9,52.2l0.6,8.5l5,6.9l2.5,3.5l7.7,260.3v226.1l-9.7,31.7l-1.3,4.3v4.5v232.6l-12.6,20.8
		l-5.6,9.2l1.6,10.7l5.7,38.8v243.7l-5,24.3l-10.4,31.3l-0.6,1.9l-0.4,1.9l-10.7,55.3l-4,5.4H619v30v164v30h15v5.8l-2.7,2l-12.3,9
		v15.2v32h-33h-30v30v17H176v-17v-30h-30h-33v-32v-15.2l-12.3-9l-2.7-2v-5.8h15v-30v-164v-30H83.1l-4-5.4l-10.7-55.3l-0.4-1.9
		l-0.6-1.9L57,1208.2l-5-24.3V940.2l5.7-38.8l1.6-10.7l-5.6-9.2L41,860.6V628v-4.5l-1.3-4.3L30,587.5V361.4l7.7-260.3l2.5-3.5l5-6.9
		l0.6-8.5L49.8,30H682.2 M710,0H22l-6,80L8,91L0,361v231l11,36v241l17,28l-6,41v249l6,29l11,33l12,62l17,23h15v164H68v51l15,11v62
		h63v47h440v-47h63v-62l15-11v-51h-15v-164h15l17-23l12-62l11-33l6-29V938l-6-41l17-28V628l11-36V361l-8-270l-8-11L710,0L710,0z"/>
</g>
</svg>
