<?xml version="1.0" encoding="utf-8"?>
<svg version="1.1" xmlns="http://www.w3.org/2000/svg" xmlns:xlink="http://www.w3.org/1999/xlink" viewBox="0 0 1343.3 765.5" overflow="visible" xml:space="preserve">
<g>
	<path fill="#fff3" d="M750.2,750.5c-8.3,0-25.5-3.4-45.3-7.3c-42-8.3-105.5-20.7-177.5-20.7S391.8,735,349.8,743.2
		c-19.9,3.9-37,7.3-45.3,7.3c-1.7,0-3.5-2.4-4.6-4.4c-8.7-15.2-7.9-48.7-2.4-58c2.7-4.6,2.7-10.4,0.1-15c-2.7-4.7-7.6-7.5-13-7.5
		h-93.5c-17.4-1.1-33.7-1.2-49.4-1.3c-39.9-0.3-71.5-0.5-92.3-16.5C26.4,630.3,15.6,592,15.1,527.4c-0.7-88.6,1.3-143.9,13.9-182.2
		c11.6-35.4,32.4-57.9,76.6-83.3c2.4-1.4,4.3-3.4,5.7-5.8c1.6-2.9,4.9-8.8,6.4-71.8c0.1-2.7,0.2-6.4,0.4-9.4
		c3.7-0.2,7.2-1.8,9.9-4.4c2.8-2.8,4.4-6.7,4.4-10.7c0-3.6,0.2-7.7,0.5-10.8c12-2,38.3-4.2,51.9-4.5c2.8,3.2,6.9,5.1,11.2,5.1
		c0.5,0,1.1,0,1.6-0.1c5.9-0.6,10.9-4.7,12.7-10.3c1.4-4.2,3.6-9.2,5.1-11.9c6.7-1.1,17.9-1.5,27.9-1.8c15.2-0.5,30.9-1,41.6-4
		c9.6-2.7,16.4-6.7,23.6-11c8.6-5.1,19.3-11.5,40.4-19.2c38.8-14.1,90.5-16.7,178.4-16.7c87.9,0,139.6,2.6,178.4,16.7
		c21.1,7.7,31.8,14.1,40.4,19.2c7.2,4.3,14,8.4,23.6,11c11.4,3.2,25.5,3.9,37.9,4.6c7.3,0.4,14.8,0.8,18.8,1.6
		c2.8,3.3,6.6,15.1,9.2,23.1c4,12.6,8.6,27,16.2,39.1c10.1,16,23.6,25,40.3,26.6c3.5,0.4,7,0.5,10.2,0.5c20.8,0,36.7-7.6,49.8-23.8
		c11.1-13.7,19.8-32.6,31.9-58.9c8.5-18.5,19.2-41.5,33.2-67.9c0.1-0.2,0.2-0.3,0.3-0.5c1.4-2.8,26.7-51.1,100-51.1
		c7.4,0,15.2,0.5,23,1.5c46.5,5.8,83.1,24.5,112,57.1c26,29.4,45.7,71.1,58.7,123.8c0.9,4.8,10.9,59.1,15.2,131.9
		c4.1,69.5,3.8,170.4-21.2,256.8c-0.1,0.4-0.2,0.7-0.3,1.1c-0.5,2.5-14.5,63.8-81.5,72.2c-5.4,0.7-8.7,3.1-10.8,5.7
		c-3.8,0.9-11.5,1.9-20.8,1.9c0,0,0,0,0,0c-7.8,0-12.8-0.8-14.7-1.5c-1.7-0.6-5.8-4.5-8.9-7.4c-9.4-8.9-23.7-22.2-48-27.6
		c-6.9-1.5-11.2-2.6-14-3.4c-3.5-0.9-5.6-1.5-8.2-1.5c-7,0-14.4,4.7-15.6,13.8c-0.5,0-1.2,0.1-2,0.1c-0.3,0-0.6,0-0.9,0
		c-0.1,0-0.3,0-0.4,0c-3.9,0-7.6,1.5-10.5,4.2c-2.9,2.8-4.6,6.7-4.5,10.8c0,1,0,2.1,0.1,3.2c0,0.7,0.1,1.7,0.1,2.5
		c-2,0.8-7.5,2.4-20.8,2.4c-0.7,0-1.4,0-2.1,0c-3.1,0-6.7-0.1-10.7-0.1c-49.2,0-161.4,2.6-166.6,2.7h-93.8c-5.4,0-10.3,2.9-13,7.5
		s-2.7,10.4,0.1,15c5.4,9.3,6.3,42.8-2.4,58C753.7,748.1,751.9,750.5,750.2,750.5z"/>
	<path fill="#fff2" d="M1117.4,30c6.8,0,13.9,0.5,21.2,1.4c42.7,5.3,76.3,22.4,102.6,52.1c24.3,27.5,42.9,66.9,55.2,117.1
		c1.2,6.5,10.8,59.6,14.9,130.1c2.6,43.7,2.6,85.4,0.1,124c-3.1,47.6-10.1,90.4-20.7,127.3c-0.3,0.9-0.4,1.3-0.5,2.1
		c-0.3,1.4-3.9,15.1-14,29c-13.1,18-31.5,28.6-54.8,31.5c-6.7,0.8-12,3.3-16.1,6.6c-3.4,0.5-8.2,0.9-13.6,0.9c-4.1,0-7-0.3-8.6-0.5
		c-1.3-1.1-3.2-2.9-4.7-4.3c-10-9.4-26.7-25.1-55-31.3c-6.6-1.4-10.7-2.5-13.4-3.2c-4-1-7.4-2-12-2c-11.2,0-20.9,5.8-26.3,14.8
		c-5.1,1.3-9.7,3.9-13.6,7.6c-4.1,4-6.9,9-8.3,14.5c-1.8,0.1-4,0.2-6.5,0.2c-0.6,0-1.3,0-1.9,0c-3.1,0-6.7-0.1-10.9-0.1
		c-49.4,0-158.5,2.5-166.8,2.7h-93.6c-10.7,0-20.7,5.7-26,15.1c-5.3,9.2-5.3,20.5-0.1,29.7c1,2.3,2.8,10.9,2.1,22.8
		c-0.4,7.6-1.7,13.3-2.9,16.9c-8.6-1.1-21.8-3.7-35.6-6.4c-42.6-8.4-107-21-180.4-21s-137.8,12.6-180.4,21
		c-13.8,2.7-27,5.3-35.6,6.4c-1.2-3.6-2.5-9.3-2.9-16.9c-0.6-11.8,1.2-20.4,2.1-22.8c5.2-9.2,5.2-20.5-0.1-29.7
		c-5.3-9.3-15.3-15.1-26-15.1h-93c-17.6-1.1-34-1.2-49.8-1.3c-37.1-0.3-66.4-0.5-83.3-13.4c-18.5-14.2-27.8-49.7-28.2-108.5
		c-0.7-87,1.2-141,13.2-177.4c10.4-31.8,28.7-51.4,69.8-74.9c4.8-2.7,8.7-6.7,11.3-11.5c3.1-5.6,6.6-12,8.2-77.7
		c2.2-1.3,4.2-2.8,6-4.6c5-5.1,8.1-11.8,8.6-18.9c10.2-1.1,23-2.1,32.2-2.5c4.8,3.2,10.6,5,16.5,5c1.1,0,2.1-0.1,3.2-0.2
		c11.8-1.3,21.7-9.3,25.3-20.7c0.3-0.8,0.6-1.7,0.9-2.6c5.9-0.4,13.2-0.6,18.4-0.8c16.8-0.5,32.7-1.1,45.1-4.5
		c11.5-3.2,19.5-8,27.3-12.6c8.5-5.1,18.1-10.8,37.9-18c36.7-13.4,87.1-15.8,173.3-15.8c86.1,0,136.6,2.4,173.3,15.8
		c19.8,7.2,29.4,13,37.9,18c7.7,4.6,15.8,9.4,27.3,12.6c12.9,3.6,27.9,4.4,41.1,5.2c2.9,0.2,6.6,0.4,9.9,0.6
		c1.6,4.1,3.3,9.6,4.6,13.7c4.3,13.5,9.2,28.8,17.8,42.5c15.8,25,36.7,32.1,51.5,33.6c4,0.4,8,0.6,11.7,0.6
		c25.4,0,45.5-9.6,61.5-29.4c12.2-15.1,21.3-34.8,33.9-62c8.9-19.3,19-41.1,32.8-67.2c0.3-0.6,0.3-0.5,0.5-1
		c0.8-1.5,6.7-11.7,19.2-21.6C1067.8,37.1,1090.5,30,1117.4,30 M1031,72.5L1031,72.5L1031,72.5 M228.4,134.8L228.4,134.8
		L228.4,134.8 M224.5,143.8L224.5,143.8L224.5,143.8 M148,148L148,148L148,148 M133.3,173.7L133.3,173.7L133.3,173.7 M1117.4,0
		c-85,0-113.5,59.6-113.5,59.6c-51.5,96.9-54.7,142.6-101.6,142.6c-2.7,0-5.6-0.2-8.6-0.5c-45.3-4.6-40.3-82.4-62.5-88.2
		c-11.6-3.1-39.9-1.6-57.4-6.4c-17.5-4.9-23-15.3-62.9-29.9C671.4,62.8,621,59.6,527.3,59.6s-144.1,3.2-183.5,17.6
		c-39.9,14.6-45.4,25-62.9,29.9c-17.5,4.9-56.8,2.1-72.4,6.4c-6.3,1.7-12.5,21.1-12.5,21.1s-2.1-3.7-5.5-4.9
		c-0.4-0.1-1.7-0.2-3.7-0.2c-14.3,0-63.6,3.6-66.4,7.7c-3.2,4.6-3,22.7-3,22.7c-13.4,0-13.9,2.1-14.6,23.9c-1.4,59.4-4.5,65-4.5,65
		C7.9,300.6-1.2,348.7,0.1,527.5c1.4,178.8,81.7,146,190.3,153h94c-11.2,19.1-8.7,85,20,85c28.7,0,115.8-28,222.9-28
		s194.2,28,222.9,28c28.7,0,31.2-65.9,20-85h94c0,0,115.9-2.7,166.4-2.7c3.9,0,7.5,0,10.5,0.1c0.8,0,1.5,0,2.3,0
		c39.9,0,35.7-13,35.7-23.1c0.5,0,0.9,0,1.3,0c7.3,0,10.7-1.9,11.8-3c7.4-7.6,3.7-10.9,5.8-10.9c1.5,0,5.9,1.6,19,4.5
		c31.8,7,42.3,29.8,55,34.4c4.6,1.6,12,2.3,19.8,2.3c13.8,0,28.7-2.2,31.3-5.3c1.9-2.4,0.3-2.2,2.2-2.4c79-10,94.3-84.1,94.3-84.1
		c49.6-171.5,6.2-396,6.2-396c-25.5-104.5-79-179.6-183.4-192.6C1133.5,0.5,1125.2,0,1117.4,0L1117.4,0z"/>
</g>
</svg>
