<?xml version="1.0" encoding="utf-8"?>
<svg version="1.1" xmlns="http://www.w3.org/2000/svg" xmlns:xlink="http://www.w3.org/1999/xlink" viewBox="0 0 664 1118" overflow="visible" xml:space="preserve">
<g>
	<polygon fill="#fff3" points="127,1103 127,1064 64,1064 64,1061.3 49,1044.3 49,995.5 57,989.5 57,827.9 43,809.9 43,646.8 
		31.8,608.8 20,589.7 20,569.8 15,558.8 15,465.5 17,461.5 17,431.5 15,427.5 15,335.8 20,328.8 19,59 46.3,59 48.3,15 615.7,15 
		617.7,59 645,59 644,328.8 649,335.8 649,427.5 647,431.5 647,461.5 649,465.5 649,558.8 644,569.8 644,589.7 632.2,608.8 
		621,646.8 621,809.9 607,827.9 607,989.5 615,995.5 615,1044.3 600,1061.3 600,1064 537,1064 537,1103 	"/>
	<path fill="#fff2" d="M601.3,30l0.7,15.4l1.3,28.6h26.6L629,323.9l0,9.7l5,7v83.3l-2,4v7.1v23v7.1l2,4v86.4l-2.3,5.1l-2.7,5.9
		v6.5v12.5l-8.5,13.7l-2.1,3.4l-1.1,3.9l-10,34l-1.2,4.1v4.3v155.7l-7.7,9.9l-6.3,8.1V833v149v15l8,6v35.7l-7.5,8.5l-1.6,1.8H552
		h-30v30v9H142v-9v-30h-30H73.1l-1.6-1.8l-7.5-8.5V1003l8-6v-15V833v-10.3l-6.3-8.1l-7.7-9.9V649v-4.3l-1.2-4.1l-10-34l-1.1-3.9
		l-2.1-3.4L35,585.5V573v-6.5l-2.7-5.9l-2.3-5.1v-86.4l2-4V458v-23v-7.1l-2-4v-83.3l5-7l0-9.7L34.1,74h26.6L62,45.4L62.7,30H601.3
		 M630,0H34l-2,44H13l-9,5l1,275l-5,7v100l2,4v23l-2,4v100l5,11v21l13,21l10,34v166l14,18v149l-8,6v62l15,17v12h63v39h440v-39h63
		v-12l15-17v-62l-8-6V833l14-18V649l10-34l13-21v-21l5-11V462l-2-4v-23l2-4V331l-5-7l1-275l-9-5h-19L630,0L630,0z"/>
</g>
</svg>
