<?xml version="1.0" encoding="utf-8"?>
<svg version="1.1" xmlns="http://www.w3.org/2000/svg" xmlns:xlink="http://www.w3.org/1999/xlink" viewBox="0 0 624 570" overflow="visible" xml:space="preserve">
<g>
	<polygon fill="#fff3" points="107,555 107,508 39,508 39,493 19.9,493 19,318.2 15,279.3 16,97.6 18,94.5 18,70.8 181.7,67.7 
		182.8,15 441.2,15 442.3,67.7 606,70.8 606,94.5 608,97.6 609,279.3 605,318.2 604.1,493 585,493 585,508 517,508 517,555 	"/>
	<path fill="#fff2" d="M426.5,30l0.5,23.6l0.6,28.8l28.8,0.5L591,85.5V90v9.1l2,3.1l0.9,176.4l-3.8,37.4l-0.1,1.4l0,1.5L589.2,478
		H570v15h-38h-30v30v17H122v-17v-30H92H54v-15H34.8L34,318.8l0-1.5l-0.1-1.4L30,278.5L31,102.2l2-3.1V90v-4.5L167.6,83l28.8-0.5
		l0.6-28.8l0.5-23.6H426.5 M453,0H171l-3,4l-1,49L5,56l-2,3v31l-2,3L0,280l4,39l1,189h19v15h68v47h440v-47h68v-15h19l1-189l4-39
		l-1-187l-2-3V59l-2-3l-162-3l-1-49L453,0L453,0z"/>
</g>
</svg>
