<?xml version="1.0" encoding="utf-8"?>
<svg version="1.1" xmlns="http://www.w3.org/2000/svg" xmlns:xlink="http://www.w3.org/1999/xlink" viewBox="0 0 762 1028" overflow="visible" xml:space="preserve">
<g>
	<polygon fill="#fff3" points="176,1013 176,966 107,966 107,962 93.6,954.8 92.9,939 84.9,917.7 72,904.8 72,874 59,867 
		59,840.7 54,832.7 54,662.9 58,652.9 58,463.2 52.9,442.8 44,429.5 44,409.3 39,387.3 39,211.9 41,206.9 41,195.2 33,174.2 
		33,149.5 36,107.5 36,81.8 23.5,61 21,61 24,15 738,15 741,61 738.5,61 726,81.8 726,107.5 729,149.5 729,174.2 721,195.2 
		721,206.9 723,211.9 723,387.3 718,409.3 718,429.5 709.1,442.8 704,463.2 704,652.9 708,662.9 708,832.7 703,840.7 703,867 
		690,874 690,904.8 677.1,917.7 669.1,939 668.4,954.8 655,962 655,966 586,966 586,1013 	"/>
	<path fill="#fff2" d="M723.9,30l1.6,23.5l-4.2,7l-6,10l-4.3,7.1V86v21v1.1l0.1,1.1l2.9,40.9v21.4l-6,15.8l-2,5.2v5.5v6v5.8l2,5
		v170.9l-4.3,18.7l-0.7,3.3v3.4v13.9l-5,7.4l-2.9,4.3l-1.3,5l-4,16l-0.9,3.6v3.7v185v5.8l2.1,5.4l1.9,4.6v162.6l-0.4,0.7l-4.6,7.3
		v8.6v13.1l-13,7V883v15.6l-6.2,6.2l-4.6,4.6l-2.3,6.1l-6,16l-1.7,4.4l-0.2,4.7l-0.2,5l-9.9,5.4H601h-30v30v17H191v-17v-30h-30
		h-42.9l-9.9-5.4l-0.2-5l-0.2-4.7l-1.7-4.4l-6-16l-2.3-6.1l-4.6-4.6l-6.2-6.2V883v-17.9l-13-7V845v-8.6l-4.6-7.3l-0.4-0.7V665.8
		l1.9-4.6l2.1-5.4V650V465v-3.7l-0.9-3.6l-4-16l-1.3-5l-2.9-4.3l-5-7.4V411v-3.4l-0.7-3.3L54,385.6V214.8l2-5V204v-6v-5.5l-2-5.2
		l-6-15.8v-21.4l2.9-40.9l0.1-1.1V107V86v-8.3l-4.3-7.1l-6-10l-4.2-7L38.1,30H723.9 M752,0H10L6,60l-6,1v15h15l6,10v21l-3,42v28
		l8,21v6l-2,5v180l5,22v23l10,15l4,16v185l-4,10v177l5,8v31l13,7v28l15,15l6,16l1,22l13,7v10h69v47h440v-47h69v-10l13-7l1-22l6-16
		l15-15v-28l13-7v-31l5-8V660l-4-10V465l4-16l10-15v-23l5-22V209l-2-5v-6l8-21v-28l-3-42V86l6-10h15V61l-6-1L752,0L752,0z"/>
</g>
</svg>
