<?xml version="1.0" encoding="utf-8"?>
<svg version="1.1" xmlns="http://www.w3.org/2000/svg" xmlns:xlink="http://www.w3.org/1999/xlink" viewBox="0 0 1252 3428" overflow="visible" xml:space="preserve">
<g>
	<polygon fill="#fff3" points="421,3413 421,3366 340,3366 340,3306 327,3295 327,2859.6 292.5,2855.7 256.3,2822.7 235.9,2634.7 
		225.3,2465.9 205.6,2461.4 191,2446.8 180,2427.9 180,1825 171,1791 171,1765.5 167,1759.5 167,1358.3 154.7,1304.1 149,1269.8 
		149,1121.2 153,1112.2 153,1072.7 135.8,1051.3 117,1041.1 117,1015 138,1001 138,946.6 125.3,920 101,897.4 101,886 98,882 
		98,730.2 101,725.2 101,598.8 86.6,506.4 52.9,408.1 45.8,282.5 32.3,259.6 15,247.3 15,190 49,190 49,127.2 52.7,123.5 57.4,15 
		1194.6,15 1199.3,123.5 1203,127.2 1203,190 1237,190 1237,247.3 1219.7,259.6 1206.2,282.5 1199.1,408.1 1165.4,506.4 1151,598.8 
		1151,725.2 1154,730.2 1154,882 1151,886 1151,897.4 1126.7,920 1114,946.6 1114,1001 1135,1015 1135,1041.1 1116.2,1051.3 
		1099,1072.7 1099,1112.2 1103,1121.2 1103,1269.8 1097.3,1304.1 1085,1358.3 1085,1759.5 1081,1765.5 1081,1791 1072,1825 
		1072,2427.9 1061,2446.8 1046.4,2461.4 1026.7,2465.9 1016.1,2634.7 995.7,2822.7 959.5,2855.7 925,2859.6 925,3295 912,3306 
		912,3366 831,3366 831,3413 	"/>
	<path fill="#fff2" d="M1180.3,30l3.8,88.3l0.5,11.7l3.5,3.5V175v30h30h4v34.6l-8.4,6l-5.2,3.7l-3.2,5.5l-10,17l-3.7,6.3l-0.4,7.3
		l-6.8,119.9l-32.7,95.1l-0.9,2.5l-0.4,2.6l-14,90l-0.4,2.3v2.3v121v8.3l3,5V877l-3,4v9.9l-17.4,16.1l-4.2,3.9l-2.5,5.2l-10,21
		l-2.9,6.1v6.8v43v16.1l13.4,8.9l7.6,5.1v9.1l-8.3,4.5l-5.3,2.9l-3.8,4.7l-12,15l-6.6,8.2v10.5v31v6.4l2.6,5.8l1.4,3.2v144.1
		l-5.5,32.7l-11.8,52.2l-0.7,3.3v3.4v394.9l-4,6v9.1v19.1l-8,30.2l-1,3.8v3.9v596.9l-8,13.6l-10.2,10.2l-4.6,1.1l-21.8,5l-1.4,22.3
		l-10,157.3l-19.7,182l-28.4,25.8l-16.4,1.9l-26.6,3.1v26.7v415.1l-2.4,2l-10.6,9v13.9v38h-51h-30v30v17H436v-17v-30h-30h-51v-38
		v-13.9l-10.6-9l-2.4-2V2873v-26.7l-26.6-3.1l-16.4-1.9l-28.4-25.8l-19.7-182l-10-157.3l-1.4-22.3l-21.8-5l-4.6-1.1l-10.2-10.2
		l-8-13.6V1827v-3.9l-1-3.8l-8-30.2V1770v-9.1l-4-6V1360v-3.4l-0.7-3.3l-11.8-52.2l-5.5-32.7v-144.1l1.4-3.2l2.6-5.8v-6.4v-31v-10.5
		l-6.6-8.2l-12-15l-3.8-4.7l-5.3-2.9l-8.3-4.5v-9.1l7.6-5.1l13.4-8.9V993v-43v-6.8l-2.9-6.1l-10-21l-2.5-5.2l-4.2-3.9L116,890.9V881
		l-3-4V734.3l3-5V721V600v-2.3l-0.4-2.3l-14-90l-0.4-2.6l-0.9-2.5l-32.7-95.1L61,285.3l-0.4-7.3l-3.7-6.3l-10-17l-3.2-5.5l-5.2-3.7
		l-8.4-6V205h4h30v-30v-41.6l3.5-3.5l0.5-11.7L71.7,30H1180.3 M1209,0H43l-5,117l-4,4v54H0v80l21,15l10,17l7,124l34,99l14,90v121
		l-3,5v161l3,4v13l27,25l10,21v43l-21,14v43l24,13l12,15v31l-4,9v153l6,36l12,53v404l4,6v23l9,34v605l14,24l19,19l13,3l10,158
		l21,194l44,40l26,3v429l13,11v68h81v47h440v-47h81v-68l13-11v-429l26-3l44-40l21-194l10-158l13-3l19-19l14-24v-605l9-34v-23l4-6
		v-404l12-53l6-36v-153l-4-9v-31l12-15l24-13v-43l-21-14v-43l10-21l27-25v-13l3-4V726l-3-5V600l14-90l34-99l7-124l10-17l21-15v-80
		h-34v-54l-4-4L1209,0L1209,0z"/>
</g>
</svg>
